<svg id="Layer_1" data-name="Layer 1" xmlns="http://www.w3.org/2000/svg" xmlns:xlink="http://www.w3.org/1999/xlink" viewBox="0 0 800 435.88"><defs><style>.cls-1{fill:url(#linear-gradient);}.cls-2{fill:url(#linear-gradient-2);}.cls-3{fill:url(#linear-gradient-3);}.cls-4{fill:url(#linear-gradient-4);}.cls-5{fill:none;stroke:#0069db;stroke-miterlimit:10;stroke-width:6.08px;}.cls-6{fill:url(#linear-gradient-5);}.cls-7{fill:#0069db;}</style><linearGradient id="linear-gradient" x1="19.35" y1="254.11" x2="156.18" y2="254.11" gradientUnits="userSpaceOnUse"><stop offset="0" stop-color="#008bea"/><stop offset="1" stop-color="#0253aa"/></linearGradient><linearGradient id="linear-gradient-2" x1="195.72" y1="254.11" x2="328.77" y2="254.11" xlink:href="#linear-gradient"/><linearGradient id="linear-gradient-3" x1="352.83" y1="254.11" x2="496.88" y2="254.11" xlink:href="#linear-gradient"/><linearGradient id="linear-gradient-4" x1="531.26" y1="254.11" x2="672.22" y2="254.11" xlink:href="#linear-gradient"/><linearGradient id="linear-gradient-5" x1="737.11" y1="147.01" x2="741.34" y2="485.62" gradientUnits="userSpaceOnUse"><stop offset="0" stop-color="#008bea"/><stop offset="0.23" stop-color="#017bd8"/><stop offset="0.73" stop-color="#025eb7"/><stop offset="1" stop-color="#0253aa"/></linearGradient></defs><path class="cls-1" d="M156.18,374.44H19.35V191.2q0-25.44,16.16-40.91a52.59,52.59,0,0,1,24.75-13.41Q74,133.78,94,133.78h62.23V164H89.48q-37.82,0-37.81,31.63v39.19h79.41v30.25H51.67v79.08H156.18Z"/><path class="cls-2" d="M328.77,344.19v30.25h-50.2q-14.1,0-22.17-.51a93.6,93.6,0,0,1-20.12-4.13A51.33,51.33,0,0,1,199.5,331q-3.8-16.32-3.78-38.33V133.78H228V291.93q0,19.95,4.47,31.28,8.94,21,37.48,21Z"/><path class="cls-3" d="M482.79,133.78V164H421.93q-34.73,0-34.72,28.19,0,15.14,15.3,25.61T443.94,238a151.79,151.79,0,0,1,19.94,9.11,90.19,90.19,0,0,1,16.5,12.21,46.53,46.53,0,0,1,12.38,19.42q4.13,11.87,4.12,27.34,0,17.19-7.22,30.77a58.33,58.33,0,0,1-18.56,21.31,93.71,93.71,0,0,1-23.21,11.69,80.86,80.86,0,0,1-23.2,4.3q-4.83.34-13.76.34H357.3V344.19h52.6q23.39,0,38.16-9.8t14.79-28.71a31.73,31.73,0,0,0-4.13-16.33,37.57,37.57,0,0,0-11.86-12.2,121.11,121.11,0,0,0-15.81-8.94q-8.08-3.78-19.43-7.91c-2.06-.69-3.67-1.26-4.81-1.72q-54-20.62-54-67.38,0-28.89,18.57-43.15t48.47-14.27Z"/><path class="cls-4" d="M531.26,254.11q.35-57.41,31.8-88.87t86.81-31.46h22.35V164H645.75q-38.18,0-58.62,25.27T566,254.11q.69,39.54,21.15,64.81t58.62,25.27h26.47v30.25H649.87q-55.35,0-86.81-31.46T531.26,254.11Z"/><path class="cls-5" d="M774.72,129.35h-4.1v-9H706.21v9h-4.09a23.6,23.6,0,0,0-1,6.59V354.17a24.4,24.4,0,0,0,24.33,24.33h25.88a24.4,24.4,0,0,0,24.33-24.33V135.94A24,24,0,0,0,774.72,129.35Z"/><path class="cls-6" d="M738.29,141.85a21.71,21.71,0,0,0-18.13-3.29V362.14h36.51V141.49S747,148.16,738.29,141.85Z"/><path class="cls-7" d="M696.54,108.72l-.07,2c0,4.07,4.23,7.37,7.34,7.37h72.32c3.11,0,5.64-3.3,5.64-7.37l-.07-2Z"/><path class="cls-7" d="M771.23,102.7h10.26l-1.42-40.06c0-4.07-2.53-7.37-6.1-7.37h-2.74Z"/><rect class="cls-7" x="708.4" y="55.27" width="19.55" height="47.43"/><rect class="cls-7" x="750.29" y="55.27" width="19.55" height="47.43"/><path class="cls-7" d="M707,55.27h-3.66c-2.65,0-5.18,3.3-5.18,7.37l-1.42,40.06H707Z"/><rect class="cls-7" x="729.35" y="55.27" width="19.55" height="47.43"/></svg>